HIERARCHY
ROOT hip
{
	OFFSET 0.000000 0.000000 0.000000 
	CHANNELS 6 Xposition Yposition Zposition Xrotation Zrotation Yrotation
	JOINT abdomen
	{
		OFFSET 0.000000 3.402643 0.000000 
		CHANNELS 3 Xrotation Zrotation Yrotation
		JOINT chest
		{
			OFFSET 0.000000 8.438565 -0.680529 
			CHANNELS 3 Xrotation Zrotation Yrotation
			JOINT neck
			{
				OFFSET 0.000000 10.207942 -0.272212 
				CHANNELS 3 Xrotation Zrotation Yrotation
				JOINT head
				{
					OFFSET 0.000000 3.130431 0.000000 
					CHANNELS 3 Xrotation Zrotation Yrotation
					End Site
					{
						OFFSET 0.000000 3.130435 0.000000 
					}
				}
			}
			JOINT lCollar
			{
				OFFSET 3.470700 6.669187 -0.816635 
				CHANNELS 3 Yrotation Zrotation Xrotation
				JOINT lShldr
				{
					OFFSET 3.198488 0.000000 0.000000 
					CHANNELS 3 Zrotation Yrotation Xrotation
					JOINT lForeArm
					{
						OFFSET 10.139888 0.000000 0.000000 
						CHANNELS 3 Yrotation Zrotation Xrotation
						JOINT lHand
						{
							OFFSET 8.370511 0.000000 0.000000 
							CHANNELS 3 Zrotation Yrotation Xrotation
							End Site
							{
								OFFSET 4.083176 0.000000 0.000000 
							}
						}
					}
				}
			}
			JOINT rCollar
			{
				OFFSET -3.470700 6.669187 -0.816635 
				CHANNELS 3 Yrotation Zrotation Xrotation
				JOINT rShldr
				{
					OFFSET -3.198488 0.000000 0.000000 
					CHANNELS 3 Zrotation Yrotation Xrotation
					JOINT rForeArm
					{
						OFFSET -10.139888 0.000000 0.000000 
						CHANNELS 3 Yrotation Zrotation Xrotation
						JOINT rHand
						{
							OFFSET -8.370511 0.000000 0.000000 
							CHANNELS 3 Zrotation Yrotation Xrotation
							End Site
							{
								OFFSET -4.083176 0.000000 0.000000 
							}
						}
					}
				}
			}
		}
	}
	JOINT lThigh
	{
		OFFSET 5.308129 -1.633274 1.361059 
		CHANNELS 3 Xrotation Zrotation Yrotation
		JOINT lShin
		{
			OFFSET -2.041588 -20.007561 0.000000 
			CHANNELS 3 Xrotation Zrotation Yrotation
			JOINT lFoot
			{
				OFFSET 0.000000 -19.190928 -1.224953 
				CHANNELS 3 Xrotation Yrotation Zrotation
				End Site
				{
					OFFSET 0.000000 -2.449906 4.627600 
				}
			}
		}
	}
	JOINT rThigh
	{
		OFFSET -5.308129 -1.633274 1.361059 
		CHANNELS 3 Xrotation Zrotation Yrotation
		JOINT rShin
		{
			OFFSET 2.041588 -20.007561 0.000000 
			CHANNELS 3 Xrotation Zrotation Yrotation
			JOINT rFoot
			{
				OFFSET 0.000000 -19.190928 -1.224953 
				CHANNELS 3 Xrotation Yrotation Zrotation
				End Site
				{
					OFFSET 0.000000 -2.449906 4.627600 
				}
			}
		}
	}
}
MOTION
Frames: 8
Frame Time: 0.016667
1.005401 49.447792 1.469249 6.266549 6.592865 14.463281 14.044286 0.029267 2.578130 0.000000 0.000000 0.000000 -53.560825 -10.722400 -17.673100 0.000000 0.000000 0.000000 0.000000 0.000000 0.000000 -69.148003 -18.033882 75.382332 -13.328058 9.263802 -13.161388 -3.993249 -2.616376 -25.174736 0.000000 0.000000 0.000000 67.836571 1.831323 56.121780 24.421091 -15.834675 2.519321 0.914948 -0.425443 -17.712925 -17.049768 -4.296558 11.411252 15.032915 2.201726 -13.850029 0.499258 -6.491923 -5.181479 4.324900 -7.459223 -10.653518 0.185325 2.564017 -3.082036 -4.924299 -1.087277 -2.950981 
1.875616 49.531773 1.222872 6.314549 5.754484 21.500793 13.056753 0.273259 2.070382 0.000000 0.000000 0.000000 -47.062031 -9.722578 -18.378920 0.000000 0.000000 0.000000 0.000000 0.000000 0.000000 -68.684525 -16.405922 71.869530 -14.400681 8.694509 -10.268668 -3.882167 -2.669909 -24.427298 0.000000 0.000000 0.000000 67.653351 2.545333 53.630943 23.627790 -13.741539 3.794885 0.653677 -0.944783 -16.864223 -15.138392 -3.593451 9.724766 13.112897 1.959672 -12.524983 0.420399 -5.610155 -5.210446 3.911699 -7.074059 -10.377103 0.107288 1.898223 -3.837946 -4.325138 -1.414416 -2.229953 
3.068583 49.632542 0.421164 6.113412 4.376129 32.685974 11.518404 0.654136 1.269672 0.000000 0.000000 0.000000 -36.788727 -7.946863 -18.603298 0.000000 0.000000 0.000000 0.000000 0.000000 0.000000 -68.136246 -13.781433 66.372169 -16.049557 7.678536 -5.690437 -3.680798 -2.760158 -23.297506 0.000000 0.000000 0.000000 67.244507 3.573614 49.621700 22.447653 -10.455770 5.894702 0.225053 -1.761738 -15.497897 -12.128315 -2.294613 7.143993 9.994587 1.900344 -9.972200 0.181413 -4.428915 -6.302832 2.283996 -6.190537 -10.255147 1.876912 0.881614 -4.804538 -4.471220 -1.770264 -1.387554 
4.261478 49.733307 -0.380496 5.659791 3.058745 43.857910 9.969152 1.025358 0.459086 0.000000 0.000000 0.000000 -26.555643 -6.160870 -18.509493 0.000000 0.000000 0.000000 0.000000 0.000000 0.000000 -67.854218 -11.117565 60.954849 -17.606052 6.529687 -1.161871 -3.488711 -2.849716 -22.158663 0.000000 0.000000 0.000000 66.773369 4.580577 45.611744 21.158928 -7.214871 8.029304 -0.220337 -2.563059 -14.127883 -9.180045 -0.858958 4.632495 6.894825 2.001571 -7.387283 -0.052556 -3.311538 -7.384846 0.653016 -5.317419 -10.160011 3.665892 -0.100044 -5.801700 -4.608128 -2.087867 -0.539302 
4.814678 49.884464 -0.656837 4.901804 1.797742 53.866753 8.895487 1.191358 -0.517669 0.000000 0.000000 0.000000 -18.570683 -4.941523 -14.253847 0.000000 0.000000 0.000000 0.000000 0.000000 0.000000 -67.003296 -8.773165 56.634670 -18.700451 5.222126 2.752902 -3.118549 -2.963492 -21.337698 0.000000 0.000000 0.000000 65.999054 4.674326 41.364326 20.673704 -4.513345 9.971652 -0.742953 -2.361132 -13.632934 -6.674680 1.287791 2.841177 4.050224 2.468224 -4.060894 -0.337102 -3.298530 -10.055704 -3.573051 -4.763288 -10.163056 10.641762 -0.244455 -7.255260 -7.014062 -1.873254 0.021164 
5.367805 50.035603 -0.933050 3.932256 0.687901 63.885410 7.815930 1.356954 -1.504178 0.000000 0.000000 0.000000 -10.517742 -4.319960 -9.881884 0.000000 0.000000 0.000000 0.000000 0.000000 0.000000 -66.330521 -6.390178 52.369526 -19.710077 3.841129 6.628229 -2.748955 -3.097636 -20.518394 0.000000 0.000000 0.000000 65.222816 4.718034 37.129196 20.094515 -1.819115 11.933590 -1.271550 -2.152823 -13.142287 -4.235049 3.512867 1.139392 1.249269 3.072738 -0.754480 -0.637565 -3.268951 -12.692784 -7.816136 -4.213844 -10.187046 17.630903 -0.205878 -8.734559 -9.433211 -1.641503 0.565435 
5.139256 49.856457 0.705865 3.794312 -0.028154 68.876968 7.832558 0.721628 -3.056767 0.000000 0.000000 0.000000 -7.570611 -4.172340 -5.189736 0.000000 0.000000 0.000000 0.000000 0.000000 0.000000 -64.288094 -4.856551 50.138412 -20.145161 3.077033 7.830975 -2.432378 -3.032385 -19.877050 0.000000 0.000000 0.000000 64.171623 3.594388 33.767036 20.754417 0.272053 13.664958 -1.932988 -1.800821 -13.254240 -3.589270 5.763777 1.528818 0.068151 2.485746 0.306017 -0.792077 -3.486158 -14.632813 -13.023019 -4.528976 -10.831244 27.165154 1.102879 -9.258346 -11.795898 -1.614703 1.787325 
4.910670 49.677307 2.344930 3.599655 -0.730562 73.863693 7.864030 0.087606 -4.609369 0.000000 0.000000 0.000000 -4.611918 -4.277189 -0.489835 0.000000 0.000000 0.000000 0.000000 0.000000 0.000000 -62.307907 -3.250258 47.968323 -20.569380 2.314187 9.026379 -2.120754 -2.987137 -19.235203 0.000000 0.000000 0.000000 63.186348 2.417899 30.437994 21.342527 2.380785 15.383792 -2.597947 -1.442225 -13.375038 -2.937705 8.011372 1.965305 -1.119102 1.917382 1.407795 -0.988733 -3.728928 -16.565407 -18.227379 -4.909852 -11.437565 36.690716 2.488107 -9.555899 -14.171768 -1.649759 3.030525 
